<svg width="32" height="32" viewBox="0 0 32 32" fill="none" xmlns="http://www.w3.org/2000/svg">
<path d="M26.88 6.66665C25.4666 5.2496 23.593 4.38471 21.5977 4.22821C19.6025 4.07172 17.617 4.63394 16 5.81332C14.3035 4.5515 12.1919 3.97933 10.0905 4.21204C7.98909 4.44474 6.05388 5.46502 4.67459 7.06743C3.2953 8.66984 2.57439 10.7353 2.65703 12.848C2.73967 14.9607 3.61972 16.9635 5.11996 18.4533L13.4 26.7467C14.0933 27.429 15.0271 27.8115 16 27.8115C16.9728 27.8115 17.9066 27.429 18.6 26.7467L26.88 18.4533C28.4367 16.887 29.3105 14.7684 29.3105 12.56C29.3105 10.3516 28.4367 8.23296 26.88 6.66665V6.66665ZM25 16.6133L16.72 24.8933C16.6257 24.9885 16.5136 25.064 16.39 25.1155C16.2664 25.1671 16.1339 25.1936 16 25.1936C15.8661 25.1936 15.7335 25.1671 15.6099 25.1155C15.4863 25.064 15.3742 24.9885 15.28 24.8933L6.99996 16.5733C5.9543 15.5044 5.36877 14.0686 5.36877 12.5733C5.36877 11.078 5.9543 9.64219 6.99996 8.57332C8.0655 7.5213 9.50259 6.93141 11 6.93141C12.4973 6.93141 13.9344 7.5213 15 8.57332C15.1239 8.69829 15.2714 8.79748 15.4339 8.86517C15.5963 8.93287 15.7706 8.96772 15.9466 8.96772C16.1226 8.96772 16.2969 8.93287 16.4594 8.86517C16.6219 8.79748 16.7693 8.69829 16.8933 8.57332C17.9588 7.5213 19.3959 6.93141 20.8933 6.93141C22.3907 6.93141 23.8278 7.5213 24.8933 8.57332C25.9533 9.62819 26.5581 11.0562 26.578 12.5516C26.598 14.0469 26.0315 15.4906 25 16.5733V16.6133Z" fill="#304A97"/>
</svg>
