<svg width="23" height="23" viewBox="0 0 23 23" fill="none" xmlns="http://www.w3.org/2000/svg">
<path d="M11.4588 7.06839C8.88653 7.06839 6.8117 9.14323 6.8117 11.7155C6.8117 14.2878 8.88653 16.3627 11.4588 16.3627C14.0312 16.3627 16.106 14.2878 16.106 11.7155C16.106 9.14323 14.0312 7.06839 11.4588 7.06839ZM11.4588 14.7368C9.79655 14.7368 8.43759 13.3819 8.43759 11.7155C8.43759 10.0492 9.7925 8.69429 11.4588 8.69429C13.1252 8.69429 14.4801 10.0492 14.4801 11.7155C14.4801 13.3819 13.1211 14.7368 11.4588 14.7368ZM17.38 6.8783C17.38 7.48093 16.8947 7.96223 16.2961 7.96223C15.6934 7.96223 15.2121 7.47689 15.2121 6.8783C15.2121 6.27971 15.6975 5.79437 16.2961 5.79437C16.8947 5.79437 17.38 6.27971 17.38 6.8783ZM20.4579 7.97841C20.3891 6.52643 20.0575 5.24027 18.9938 4.18061C17.9341 3.12095 16.648 2.7893 15.196 2.7165C13.6995 2.63156 9.21414 2.63156 7.71767 2.7165C6.26973 2.78525 4.98358 3.1169 3.91987 4.17657C2.85616 5.23623 2.52856 6.52238 2.45576 7.97436C2.37082 9.47083 2.37082 13.9562 2.45576 15.4527C2.52451 16.9046 2.85616 18.1908 3.91987 19.2505C4.98358 20.3101 6.26569 20.6418 7.71767 20.7146C9.21414 20.7995 13.6995 20.7995 15.196 20.7146C16.648 20.6458 17.9341 20.3142 18.9938 19.2505C20.0534 18.1908 20.3851 16.9046 20.4579 15.4527C20.5428 13.9562 20.5428 9.47488 20.4579 7.97841ZM18.5246 17.0583C18.2091 17.8511 17.5984 18.4618 16.8016 18.7813C15.6085 19.2545 12.7774 19.1453 11.4588 19.1453C10.1403 19.1453 7.30513 19.2505 6.11604 18.7813C5.32331 18.4658 4.71259 17.8551 4.39308 17.0583C3.91987 15.8652 4.02907 13.0341 4.02907 11.7155C4.02907 10.397 3.92391 7.56182 4.39308 6.37274C4.70855 5.58001 5.31927 4.96929 6.11604 4.64977C7.30917 4.17657 10.1403 4.28577 11.4588 4.28577C12.7774 4.28577 15.6126 4.18061 16.8016 4.64977C17.5944 4.96525 18.2051 5.57597 18.5246 6.37274C18.9978 7.56587 18.8886 10.397 18.8886 11.7155C18.8886 13.0341 18.9978 15.8693 18.5246 17.0583Z" fill="#D5B359"/>
</svg>
