<svg width="24" height="24" viewBox="0 0 24 24" fill="none" xmlns="http://www.w3.org/2000/svg">
<path d="M12 24C5.38047 24 0 18.6195 0 12C0 5.38047 5.38047 0 12 0C18.6195 0 24 5.38047 24 12C24 18.6195 18.6195 24 12 24ZM12 1.67442C6.30698 1.67442 1.67442 6.30698 1.67442 12C1.67442 17.693 6.30698 22.3256 12 22.3256C17.693 22.3256 22.3256 17.693 22.3256 12C22.3256 6.30698 17.693 1.67442 12 1.67442Z" fill="#304A97"/>
<path d="M12.2681 17.3023C9.34352 17.3023 6.96585 14.9246 6.96585 12C6.96585 9.07535 9.34352 6.69767 12.2681 6.69767C13.5519 6.69767 14.8021 7.16651 15.7621 8.02604C16.1081 8.32744 16.1416 8.86325 15.8402 9.2093C15.5388 9.55535 15.003 9.58885 14.657 9.28745C13.9984 8.70698 13.15 8.38326 12.2681 8.38326C10.27 8.38326 8.64027 10.013 8.64027 12.0112C8.64027 14.0093 10.27 15.6391 12.2681 15.6391C13.1388 15.6391 13.9984 15.3153 14.657 14.7349C15.003 14.4335 15.5388 14.467 15.8402 14.813C16.1416 15.1591 16.1081 15.6949 15.7621 15.9963C14.7909 16.8335 13.5519 17.3023 12.2681 17.3023Z" fill="#304A97"/>
</svg>
