<svg width="22" height="23" viewBox="0 0 22 23" fill="none" xmlns="http://www.w3.org/2000/svg">
<path d="M18 2.6528H3.7554C3.24023 2.6528 2.74616 2.85745 2.38188 3.22173C2.0176 3.58601 1.81295 4.08008 1.81295 4.59525V18.8399C1.81295 19.355 2.0176 19.8491 2.38188 20.2134C2.74616 20.5777 3.24023 20.7823 3.7554 20.7823H9.30959V14.6187H6.76013V11.7176H9.30959V9.50641C9.30959 6.99134 10.8069 5.60208 13.1002 5.60208C14.1985 5.60208 15.347 5.79795 15.347 5.79795V8.26648H14.0815C12.8347 8.26648 12.4458 9.04022 12.4458 9.83379V11.7176H15.2292L14.7841 14.6187H12.4458V20.7823H18C18.5152 20.7823 19.0093 20.5777 19.3736 20.2134C19.7378 19.8491 19.9425 19.355 19.9425 18.8399V4.59525C19.9425 4.08008 19.7378 3.58601 19.3736 3.22173C19.0093 2.85745 18.5152 2.6528 18 2.6528Z" fill="#D5B359"/>
</svg>
