<svg width="90" height="90" viewBox="0 0 90 90" fill="none" xmlns="http://www.w3.org/2000/svg">
<path d="M88.528 20.5083C87.9859 19.8351 87.3225 19.2965 86.5809 18.9276C85.8392 18.5587 85.0361 18.3678 84.2238 18.3673H63.8135C63.2141 13.2867 60.975 8.62195 57.5136 5.24263C54.0522 1.86332 49.6047 0 45.0002 0C40.3956 0 35.9481 1.86332 32.4867 5.24263C29.0253 8.62195 26.7862 13.2867 26.1868 18.3673H5.7765C4.96408 18.3673 4.1608 18.558 3.4191 18.9269C2.6774 19.2959 2.01399 19.8348 1.47217 20.5085C0.930357 21.1821 0.522334 21.9754 0.274753 22.8365C0.0271727 23.6976 -0.0543976 24.6072 0.0353693 25.5058L5.90342 84.2813C6.05905 85.8542 6.7311 87.3079 7.79064 88.3633C8.85018 89.4187 10.2226 90.0015 11.6446 90H78.3557C79.7777 90.0015 81.1501 89.4187 82.2097 88.3633C83.2692 87.3079 83.9412 85.8542 84.0969 84.2813L89.9649 25.5058C90.0543 24.6072 89.9725 23.6977 89.7249 22.8367C89.4773 21.9756 89.0695 21.1823 88.528 20.5083ZM45.0002 5.5102C48.2899 5.5153 51.4737 6.80504 53.9966 9.1546C56.5195 11.5042 58.2214 14.7645 58.8058 18.3673H31.1945C31.7789 14.7645 33.4808 11.5042 36.0037 9.1546C38.5266 6.80504 41.7104 5.5153 45.0002 5.5102ZM79.1761 83.6728C79.1538 83.8975 79.0578 84.1052 78.9064 84.2559C78.755 84.4067 78.5589 84.49 78.3557 84.4898H11.6446C11.4414 84.49 11.2453 84.4067 11.0939 84.2559C10.9425 84.1052 10.8465 83.8975 10.8242 83.6728L4.95611 24.8975C4.94331 24.7691 4.95499 24.6391 4.99039 24.5161C5.02578 24.3931 5.08409 24.2797 5.16151 24.1835C5.23892 24.0872 5.33371 24.0103 5.43968 23.9575C5.54565 23.9048 5.66042 23.8776 5.7765 23.8775H84.2238C84.3398 23.8776 84.4546 23.9048 84.5606 23.9575C84.6665 24.0102 84.7613 24.0872 84.8387 24.1834C84.9161 24.2796 84.9744 24.3929 85.0098 24.516C85.0452 24.639 85.0569 24.7689 85.0442 24.8973L79.1761 83.6728Z" fill="#304A97"/>
</svg>
